<?xml version="1.0" encoding="iso-8859-1"?>
<!-- Generator: Adobe Illustrator 19.0.0, SVG Export Plug-In . SVG Version: 6.00 Build 0)  -->
<svg version="1.1" id="Layer_1" xmlns="http://www.w3.org/2000/svg" xmlns:xlink="http://www.w3.org/1999/xlink" x="0px" y="0px"
	 viewBox="0 0 205.052 205.052" style="enable-background:new 0 0 205.052 205.052;" xml:space="preserve">
<g>
	<g>
		<path fill="white" d="M204.987,158.066l-13.821-71.105h5.174c1.919,0,3.475-1.556,3.475-3.475V10.52c0-1.919-1.556-3.475-3.475-3.475H8.712
			c-1.919,0-3.475,1.556-3.475,3.475v72.966c0,1.919,1.556,3.475,3.475,3.475h161.469L2.811,119.495
			c-1.883,0.365-3.113,2.189-2.747,4.074l13.922,71.626c0.175,0.904,0.702,1.702,1.468,2.217c0.579,0.39,1.255,0.594,1.943,0.594
			c0.221,0,0.443-0.02,0.663-0.065l184.18-35.801C204.123,161.775,205.353,159.951,204.987,158.066z M192.865,75.098l-10.424-10.424
			V29.332l10.424-10.424V75.098z M187.952,13.995l-10.424,10.424H27.524L17.1,13.995H187.952z M175.491,32.726v28.555
			c-0.284,0.155-0.575,0.301-0.816,0.542c-0.241,0.241-0.387,0.532-0.542,0.816H30.917c-0.155-0.284-0.301-0.575-0.542-0.816
			s-0.532-0.387-0.816-0.542V32.726c0.284-0.155,0.575-0.301,0.816-0.542c0.241-0.241,0.387-0.532,0.542-0.816h143.216
			c0.155,0.284,0.301,0.575,0.542,0.816C174.916,32.425,175.207,32.571,175.491,32.726z M12.187,18.908L22.61,29.332v35.343
			L12.187,75.099V18.908z M17.1,80.012l10.424-10.424h150.004l10.424,10.424H17.1z M180.084,92.115l-8.244,12.222L24.591,132.959
			l-12.221-8.243L180.084,92.115z M176.876,140.907c-0.25,0.207-0.508,0.406-0.699,0.689c-0.191,0.283-0.278,0.596-0.377,0.906
			L35.218,169.828c-0.207-0.25-0.406-0.508-0.689-0.699c-0.282-0.191-0.596-0.279-0.904-0.377l-5.438-27.977
			c0.255-0.21,0.493-0.448,0.687-0.737c0.191-0.283,0.278-0.596,0.376-0.905l140.583-27.327c0.207,0.25,0.406,0.508,0.689,0.699
			c0.289,0.195,0.598,0.337,0.916,0.435L176.876,140.907z M8.486,130.478l12.223,8.244l6.742,34.688l-8.243,12.221L8.486,130.478z
			 M24.967,189.519l8.244-12.222l147.249-28.622l12.221,8.243L24.967,189.519z M184.344,142.913l-6.744-34.69l8.243-12.221
			l10.721,55.153L184.344,142.913z"/>
	</g>
</g>
<g>
</g>
<g>
</g>
<g>
</g>
<g>
</g>
<g>
</g>
<g>
</g>
<g>
</g>
<g>
</g>
<g>
</g>
<g>
</g>
<g>
</g>
<g>
</g>
<g>
</g>
<g>
</g>
<g>
</g>
</svg>
