<?xml version="1.0" standalone="no"?>
<!DOCTYPE svg PUBLIC "-//W3C//DTD SVG 20010904//EN"
 "http://www.w3.org/TR/2001/REC-SVG-20010904/DTD/svg10.dtd">
<svg version="1.0" xmlns="http://www.w3.org/2000/svg"
 width="256.000000pt" height="256.000000pt" viewBox="0 0 256.000000 256.000000"
 preserveAspectRatio="xMidYMid meet">
<metadata>
Created by potrace 1.14, written by Peter Selinger 2001-2017
</metadata>
<g transform="translate(0.000000,256.000000) scale(0.100000,-0.100000)"
fill="#000000" stroke="none">
<path d="M0 1280 l0 -1280 1280 0 1280 0 0 529 c0 414 -3 530 -12 534 -10 4
-10 6 0 6 18 1 14 29 -5 34 -17 4 -17 5 0 6 16 1 17 43 17 726 l0 725 -717 0
c-589 -1 -715 -3 -701 -14 11 -8 15 -20 12 -34 -7 -24 -34 -38 -34 -17 0 8 -4
15 -10 15 -5 0 -10 -9 -10 -21 0 -12 -4 -17 -11 -13 -6 3 -9 14 -6 24 3 11 -1
21 -8 24 -17 6 -25 -3 -25 -27 0 -13 -5 -17 -15 -13 -9 3 -15 0 -15 -9 0 -8
-3 -14 -7 -14 -21 3 -21 -3 -3 -21 12 -12 25 -18 30 -15 6 4 10 -5 10 -19 0
-14 -4 -26 -8 -26 -16 0 -34 -52 -22 -64 21 -21 9 -26 -27 -11 -39 16 -52 13
-35 -8 7 -8 7 -18 2 -27 -6 -9 -5 -17 3 -22 19 -11 0 -21 -20 -10 -15 8 -22 6
-32 -10 -7 -11 -8 -17 -2 -13 6 3 15 -4 21 -17 13 -31 29 -50 63 -71 29 -19
33 -36 17 -68 -9 -16 -14 -17 -33 -8 -12 7 -25 17 -29 23 -5 6 -8 1 -8 -11 0
-13 5 -23 11 -23 6 0 9 -9 6 -20 -4 -15 0 -20 13 -20 11 0 22 -4 25 -10 3 -5
2 -10 -4 -10 -6 0 -8 -7 -4 -16 5 -12 7 -13 14 -2 6 10 11 10 21 0 7 -7 8 -12
2 -12 -19 0 -11 -26 9 -27 13 -1 17 3 13 13 -4 9 4 19 19 26 14 6 25 15 25 20
0 4 5 8 10 8 6 0 8 -11 4 -27 -7 -25 -6 -27 9 -14 14 11 18 11 23 -3 3 -9 10
-14 14 -11 4 3 10 -4 13 -15 3 -11 1 -18 -4 -14 -5 3 -9 0 -9 -6 0 -6 -4 -8
-10 -5 -5 3 -10 2 -10 -4 0 -5 4 -12 8 -15 4 -2 7 -17 6 -33 -2 -28 -13 -32
-44 -12 -11 7 -8 8 10 3 l25 -7 -20 23 c-16 17 -27 21 -54 16 -19 -3 -40 -2
-45 3 -6 5 -35 14 -65 21 -44 10 -55 10 -62 -1 -7 -12 -9 -11 -10 1 0 10 -3 8
-8 -5 -11 -25 -5 -35 20 -35 21 0 25 -17 8 -40 -8 -12 -9 -10 -4 8 6 19 3 22
-24 22 -37 0 -59 -31 -36 -50 8 -7 15 -9 15 -4 0 5 7 -4 15 -20 8 -15 15 -29
15 -30 0 -2 -14 -3 -30 -3 -20 0 -29 5 -26 12 7 18 -14 35 -44 35 -14 0 -31 4
-38 9 -17 11 -22 70 -7 79 26 15 40 77 24 108 -3 5 -5 18 -5 29 1 17 7 20 35
17 19 -1 40 -7 47 -13 17 -14 54 -2 54 17 0 8 6 14 13 14 6 0 4 5 -6 11 -11 7
-16 17 -12 29 4 13 -1 19 -20 24 -14 4 -25 13 -25 21 0 8 -9 15 -19 15 -14 0
-21 10 -28 37 -7 31 -14 39 -43 46 -19 5 -45 10 -57 10 -13 1 -23 5 -23 8 0 4
-9 9 -20 12 -23 6 -27 27 -5 27 8 0 15 4 15 9 0 11 76 8 87 -3 5 -4 -1 -6 -13
-4 -11 1 -20 -1 -20 -7 1 -5 4 -9 9 -7 4 1 7 -2 7 -8 0 -18 24 -10 49 15 16
18 21 32 17 49 -4 16 -1 26 8 29 22 9 8 49 -14 42 -9 -3 -24 3 -35 15 -10 11
-21 17 -25 15 -4 -3 -14 3 -21 12 -10 12 -10 15 -1 9 7 -4 15 0 20 11 5 14 18
18 60 18 28 0 52 5 53 10 1 18 42 55 61 55 12 0 16 -4 12 -12 -5 -8 -2 -9 12
-3 10 4 31 10 47 13 15 2 27 8 27 13 0 5 -216 9 -500 9 l-500 0 0 -1280z m540
1000 c0 -5 -5 -10 -11 -10 -5 0 -7 5 -4 10 3 6 8 10 11 10 2 0 4 -4 4 -10z
m495 -119 c3 -5 1 -12 -5 -16 -5 -3 -10 -1 -10 5 0 6 -4 8 -10 5 -5 -3 -10 -1
-10 4 0 13 27 14 35 2z m235 -60 c0 -6 -4 -13 -10 -16 -5 -3 -10 1 -10 9 0 9
5 16 10 16 6 0 10 -4 10 -9z m-27 -68 c-3 -7 -6 -13 -8 -13 -2 0 -5 6 -8 13
-3 8 1 14 8 14 7 0 11 -6 8 -14z m-678 -413 c3 -5 1 -10 -4 -10 -6 0 -11 5
-11 10 0 6 2 10 4 10 3 0 8 -4 11 -10z m332 -15 c9 -9 23 -13 34 -10 10 4 19
2 19 -3 0 -16 35 -10 59 12 19 17 23 17 18 4 -5 -13 2 -18 34 -23 22 -4 39
-12 39 -20 0 -7 5 -15 11 -17 7 -2 5 -9 -5 -17 -13 -11 -16 -11 -16 1 0 19
-49 18 -69 -1 -12 -10 -12 -17 -3 -32 16 -24 15 -25 -8 -25 -11 0 -20 4 -20 8
0 5 -9 4 -20 -2 -16 -9 -18 -15 -10 -30 6 -12 19 -19 33 -17 16 1 22 -3 21
-15 -1 -10 2 -18 7 -18 5 0 8 -6 6 -12 -1 -8 9 -13 26 -13 21 1 26 -3 21 -17
-3 -12 0 -18 9 -18 9 0 18 -6 21 -12 3 -7 4 -5 3 6 -1 12 5 20 21 22 12 2 22
0 22 -5 0 -6 8 -9 18 -9 9 0 29 -2 44 -5 20 -4 25 -2 21 9 -3 8 0 14 7 14 8 0
11 -10 7 -30 -4 -16 -2 -32 3 -35 6 -3 10 1 10 10 0 14 8 16 50 13 28 -3 50 0
50 5 0 5 5 5 13 -1 19 -16 41 2 34 27 -3 12 -2 19 3 16 4 -3 11 7 15 23 6 26
7 27 22 7 14 -19 15 -20 11 0 -3 21 35 65 57 65 21 0 18 -20 -2 -21 -11 0 -13
-3 -5 -6 21 -8 13 -33 -10 -33 -16 0 -30 -12 -46 -40 -15 -26 -18 -38 -8 -34
9 4 14 -3 14 -20 0 -14 -5 -26 -11 -26 -8 0 -8 -3 0 -11 11 -11 103 -3 101 10
0 3 0 15 1 26 1 15 3 17 10 6 5 -7 14 -10 21 -6 9 5 10 1 5 -16 -6 -20 -5 -22
6 -11 20 18 31 14 19 -7 -11 -22 2 -37 22 -25 20 13 65 8 90 -8 14 -9 31 -17
39 -18 23 -3 59 11 59 24 0 6 4 4 9 -4 6 -8 8 -17 6 -20 -2 -3 8 -5 21 -5 13
0 24 3 24 8 0 16 18 6 23 -14 5 -19 11 -21 42 -15 26 5 44 3 61 -9 14 -9 24
-11 24 -5 0 6 4 9 10 5 5 -3 7 -12 4 -19 -3 -7 1 -20 9 -28 20 -19 37 -107 31
-149 -3 -19 0 -55 7 -79 19 -69 21 -110 3 -103 -8 3 -14 0 -14 -7 0 -7 -8 -10
-19 -7 -14 3 -18 1 -14 -9 3 -8 0 -14 -6 -14 -7 0 -17 14 -22 30 -12 32 -23
38 -36 18 -7 -12 -8 -16 -12 -35 0 -4 -13 5 -28 21 -24 26 -28 27 -38 12 -7
-9 -17 -16 -23 -16 -6 0 -13 -18 -17 -39 -6 -34 -45 -90 -45 -65 0 5 -5 2 -10
-6 -7 -11 -10 -11 -10 -2 0 7 -5 10 -11 6 -7 -4 -41 -7 -78 -8 -47 -1 -65 -5
-64 -13 2 -7 -6 -13 -16 -13 -10 0 -21 -7 -25 -15 -3 -8 -10 -15 -15 -15 -6 0
-8 6 -5 14 8 21 -15 30 -29 12 -15 -20 -80 -41 -74 -23 4 12 8 13 47 16 11 0
20 5 20 11 0 5 -15 9 -34 7 -19 -1 -32 -6 -28 -11 3 -5 -5 -6 -19 -2 -70 19
-67 20 -63 -12 3 -31 -12 -36 -51 -15 -28 15 -98 16 -89 1 4 -6 -4 -3 -18 8
l-26 19 26 6 27 7 -27 1 c-15 0 -30 -4 -33 -9 -4 -6 -12 -8 -18 -4 -7 3 -4 -1
6 -9 15 -12 15 -16 3 -20 -8 -3 -16 -1 -18 5 -3 9 -22 9 -74 0 -38 -7 -82 -12
-99 -11 -41 3 -75 -9 -75 -27 0 -9 -8 -14 -17 -13 -10 1 -21 1 -25 0 -5 0 -11
-1 -15 -2 -5 0 -13 -5 -20 -10 -7 -6 -13 -6 -17 -1 -7 11 22 27 57 31 7 1 4 8
-8 17 -12 9 -31 13 -47 10 -16 -3 -28 -2 -28 3 0 13 162 30 184 19 10 -6 32
-7 50 -4 17 3 51 9 76 12 25 4 47 9 50 13 11 13 56 29 89 30 18 1 41 6 51 11
10 6 34 10 52 10 31 0 135 24 144 33 6 5 -65 77 -76 77 -16 0 -60 -23 -60 -31
0 -18 -283 13 -307 33 -9 7 -13 7 -13 -1 0 -16 -28 -14 -143 9 -127 26 -139
29 -132 40 3 5 -11 14 -31 20 -57 19 -33 22 62 6 49 -8 116 -17 149 -20 54 -5
50 -3 -50 24 -60 16 -124 29 -142 29 -17 1 -35 6 -38 11 -3 6 -16 10 -28 10
-42 0 -51 14 -31 46 10 16 23 33 29 37 5 5 -1 5 -13 2 -22 -6 -23 -5 -13 14 8
14 8 21 1 21 -5 0 -10 7 -10 15 0 8 -21 25 -47 37 -68 31 -74 42 -64 111 0 5
5 6 10 3 12 -8 22 20 26 69 l3 40 -46 0 c-26 0 -52 -4 -59 -8 -7 -4 -25 -5
-40 -2 -84 17 -95 18 -104 4 -6 -11 -11 -11 -21 -1 -9 9 -9 12 0 12 7 0 12 9
12 20 0 11 6 20 13 21 6 0 2 5 -10 11 -13 6 -23 17 -23 25 0 7 -9 13 -20 13
-18 0 -30 19 -12 21 4 0 16 3 27 5 11 3 28 5 38 5 17 0 17 2 -3 19 -12 10 -27
21 -32 22 -7 3 -5 14 6 30 12 19 23 24 42 20 17 -3 23 -9 19 -19 -3 -9 7 -28
25 -46 16 -17 30 -34 30 -38 0 -4 10 -9 23 -11 44 -8 65 46 27 70 -12 7 -18
18 -14 24 5 7 11 5 20 -6 13 -18 34 -14 34 5 0 6 -4 8 -9 4 -13 -7 -25 15 -14
26 5 5 21 2 38 -7 27 -14 33 -14 57 1 25 14 28 14 28 1 0 -16 10 -20 42 -17
12 2 16 -3 12 -12 -2 -7 2 -20 11 -27 14 -12 18 -11 26 1 7 10 11 11 17 2 9
-15 26 -5 36 21 6 18 7 18 19 2 11 -16 15 -16 25 -3 7 8 12 19 10 23 -4 16 22
54 38 54 9 0 22 -7 31 -15z m833 -15 c6 -11 8 -20 6 -20 -3 0 -10 9 -16 20 -6
11 -8 20 -6 20 3 0 10 -9 16 -20z m44 6 c-10 -8 -21 -12 -24 -10 -5 6 21 24
34 24 6 0 1 -6 -10 -14z m143 8 c-3 -3 -12 -4 -19 -1 -8 3 -5 6 6 6 11 1 17
-2 13 -5z m-729 -39 c1 -14 -1 -16 -7 -7 -4 7 -17 14 -29 15 -11 0 -19 4 -16
8 2 4 14 6 27 5 15 -1 24 -8 25 -21z m594 -11 c-13 -9 -26 -13 -30 -9 -8 8 17
25 38 25 9 0 6 -6 -8 -16z m-32 -33 c0 -5 -8 -12 -17 -15 -11 -5 -14 -10 -7
-14 8 -5 7 -19 -1 -47 -7 -22 -14 -33 -15 -25 -1 9 -5 5 -8 -8 -4 -13 -10 -23
-14 -23 -14 0 -68 -58 -68 -73 0 -9 -5 -16 -11 -16 -5 0 -7 5 -4 10 3 6 0 10
-8 10 -26 0 -40 26 -23 42 8 9 11 20 6 28 -4 7 -1 24 6 39 8 14 14 32 14 40 0
10 8 12 30 7 22 -4 29 -2 24 6 -4 7 -3 8 5 4 14 -9 5 -26 -15 -26 -8 0 -14 -5
-14 -11 0 -6 8 -8 18 -5 9 3 30 8 45 12 16 4 25 9 20 13 -11 8 -10 33 2 48 12
14 35 17 35 4z m-1485 -61 c3 -5 1 -10 -4 -10 -6 0 -11 5 -11 10 0 6 2 10 4
10 3 0 8 -4 11 -10z m805 -20 c-6 -12 -14 -20 -17 -17 -2 3 1 14 8 26 17 26
24 19 9 -9z m283 10 c-7 -27 -21 -34 -38 -20 -9 8 -15 8 -20 0 -3 -6 -11 -8
-16 -5 -18 12 -8 21 34 32 23 5 43 11 44 12 0 0 -1 -8 -4 -19z m-1263 0 c0 -5
-2 -10 -4 -10 -3 0 -8 5 -11 10 -3 6 -1 10 4 10 6 0 11 -4 11 -10z m1147 -22
c-3 -7 -5 -2 -5 12 0 14 2 19 5 13 2 -7 2 -19 0 -25z m507 -34 c3 -8 2 -12 -4
-9 -6 3 -10 10 -10 16 0 14 7 11 14 -7z m587 -7 c-13 -13 -26 -3 -16 12 3 6
11 8 17 5 6 -4 6 -10 -1 -17z m153 -2 c-7 -17 -20 -20 -28 -6 -7 10 3 21 20
21 8 0 11 -6 8 -15z m-49 -5 c3 -5 1 -10 -4 -10 -6 0 -11 5 -11 10 0 6 2 10 4
10 3 0 8 -4 11 -10z m-891 -48 c-5 -33 -12 -43 -35 -51 -33 -11 -40 3 -9 19
11 6 20 16 18 23 -2 12 24 59 29 53 2 -2 1 -22 -3 -44z m-224 8 c0 -5 -5 -10
-11 -10 -5 0 -7 5 -4 10 3 6 8 10 11 10 2 0 4 -4 4 -10z m1090 -30 c0 -5 8 -9
18 -8 9 1 31 0 47 -1 l30 -2 -33 -14 c-29 -13 -37 -12 -67 2 -19 9 -32 20 -29
25 7 11 34 10 34 -2z m-399 -50 c5 0 9 -4 9 -9 0 -12 -38 -2 -47 12 -4 7 0 8
11 4 10 -4 22 -7 27 -7z m-141 -20 c0 -5 -5 -10 -11 -10 -5 0 -7 5 -4 10 3 6
8 10 11 10 2 0 4 -4 4 -10z m106 -17 c-2 -2 -11 0 -20 3 -14 5 -15 9 -5 15 12
7 34 -10 25 -18z m74 -4 c0 -14 -7 -19 -26 -19 -25 0 -25 6 -1 37 12 17 27 7
27 -18z m370 -26 c-8 -2 -21 -7 -29 -9 -10 -3 -11 -7 -2 -18 9 -11 9 -16 0
-22 -7 -4 -14 -3 -17 4 -2 6 -11 8 -20 6 -10 -4 -6 5 11 20 15 14 38 26 50 25
14 0 17 -2 7 -6z m66 -33 c8 0 14 -4 14 -10 0 -12 -57 -13 -64 -1 -8 12 6 22
22 16 7 -3 20 -5 28 -5z m-100 -37 c-4 -5 -11 -8 -14 -8 -4 0 -13 -4 -19 -8
-9 -5 -13 -3 -13 7 0 11 9 16 27 16 14 0 23 -3 19 -7z m117 -2 c4 -1 7 -5 7
-9 0 -11 -39 -57 -48 -58 -4 0 -14 -4 -22 -7 -8 -4 -32 -8 -53 -10 -34 -4 -38
-2 -34 14 3 11 1 22 -5 25 -5 3 3 13 18 20 15 8 30 11 33 7 25 -33 76 -39 64
-7 -3 9 -12 13 -19 10 -8 -3 -14 -1 -14 3 0 12 19 18 45 15 11 -1 23 -3 28 -3z
m-1855 -166 c-3 -3 -9 2 -12 12 -6 14 -5 15 5 6 7 -7 10 -15 7 -18z m-93 -336
c11 -16 1 -19 -13 -3 -7 8 -8 14 -3 14 5 0 13 -5 16 -11z m274 -46 c0 -11 -3
-13 -6 -5 -2 6 -10 9 -15 6 -7 -4 -8 -2 -4 4 4 6 2 22 -5 34 l-11 23 21 -22
c11 -12 21 -30 20 -40z m-172 33 c8 -1 19 -9 24 -17 7 -11 9 -11 9 4 0 9 5 17
10 17 6 0 10 -4 10 -9 0 -5 2 -16 5 -23 4 -11 -3 -13 -30 -10 -19 2 -35 9 -35
15 0 6 -3 7 -7 4 -3 -4 -14 0 -24 9 -11 10 -19 12 -24 4 -3 -5 -11 -8 -16 -4
-19 12 4 25 33 19 17 -4 37 -8 45 -9z m523 9 c0 -2 -8 -9 -18 -14 -14 -8 -19
-6 -19 5 0 7 9 14 19 14 10 0 18 -2 18 -5z m-390 -17 c0 -3 -3 -14 -6 -23 -6
-14 -8 -14 -27 2 -11 10 -17 13 -14 6 4 -6 3 -14 -2 -17 -8 -5 -21 15 -21 34
0 4 16 7 35 6 19 0 35 -4 35 -8z m182 -6 c-10 -3 -10 -7 -1 -18 9 -11 8 -14
-5 -14 -17 0 -20 9 -10 34 3 9 11 13 17 9 8 -5 7 -8 -1 -11z m303 8 c3 -5 1
-10 -4 -10 -6 0 -11 5 -11 10 0 6 2 10 4 10 3 0 8 -4 11 -10z m-248 -6 c-3 -3
-12 -4 -19 -1 -8 3 -5 6 6 6 11 1 17 -2 13 -5z"/>
<path d="M1068 1323 c7 -3 16 -2 19 1 4 3 -2 6 -13 5 -11 0 -14 -3 -6 -6z"/>
<path d="M1540 1249 c0 -6 -4 -8 -8 -5 -4 2 -14 1 -22 -5 -12 -7 -12 -9 -1 -9
11 0 11 -3 0 -16 -10 -13 -6 -12 24 3 40 20 45 28 22 37 -8 3 -15 1 -15 -5z"/>
<path d="M928 853 c7 -3 16 -2 19 1 4 3 -2 6 -13 5 -11 0 -14 -3 -6 -6z"/>
<path d="M1703 703 c15 -2 37 -2 50 0 12 2 0 4 -28 4 -27 0 -38 -2 -22 -4z"/>
<path d="M1585 1410 c-3 -5 1 -10 10 -10 9 0 13 5 10 10 -3 6 -8 10 -10 10 -2
0 -7 -4 -10 -10z"/>
<path d="M1000 2370 c0 -5 5 -10 10 -10 6 0 10 5 10 10 0 6 -4 10 -10 10 -5 0
-10 -4 -10 -10z"/>
<path d="M770 1889 c0 -11 5 -17 10 -14 6 3 10 13 10 21 0 8 -4 14 -10 14 -5
0 -10 -9 -10 -21z"/>
</g>
</svg>
